<?xml version="1.0" encoding="UTF-8"?>
<svg id="Layer_1" xmlns="http://www.w3.org/2000/svg" viewBox="0 0 500 76">
  <defs>
    <style>
      .cls-1 {
        fill: #d73c23;
      }
    </style>
  </defs>
  <path class="cls-1" d="M67.5,12.18c-.79.32-1.33.92-1.62,1.82-.29.9-.44,2.35-.44,4.36v39.29c0,2.01.14,3.46.44,4.36.29.9.84,1.5,1.66,1.82.82.32,2.1.53,3.84.63v1.58c-2.9-.16-7.05-.24-12.44-.24-5.65,0-9.82.08-12.52.24v-1.58c1.9-.11,3.29-.32,4.16-.63.87-.32,1.47-.92,1.78-1.82.32-.9.48-2.35.48-4.36V16.22l-19.09,49.9h-1.27L11.11,15.11v37.94c0,3.12.16,5.4.48,6.85.32,1.45,1,2.51,2.06,3.17,1.06.66,2.77,1.12,5.15,1.39v1.58c-2.06-.16-4.91-.24-8.55-.24-2.9,0-5.2.08-6.89.24v-1.58c1.74-.26,3.02-.71,3.84-1.35.82-.63,1.37-1.64,1.66-3.01.29-1.37.44-3.41.44-6.1V18.36c0-2.01-.15-3.46-.44-4.36-.29-.9-.85-1.5-1.66-1.82-.82-.32-2.1-.53-3.84-.63v-1.58c1.69.16,3.99.24,6.89.24,4.86,0,9.03-.08,12.52-.24l16,38.58,14.57-38.34h5.62c5.39,0,9.53-.08,12.44-.24v1.58c-1.8.11-3.09.32-3.88.63Z"/>
  <path class="cls-1" d="M122.87,9.88v1.58c-2.43,1-4.96,4.07-7.6,9.19l-9.35,18.54v18.46c0,2.01.15,3.46.44,4.36.29.9.83,1.5,1.62,1.82.79.32,2.09.53,3.88.63v1.58c-2.85-.16-6.92-.24-12.2-.24-5.65,0-9.74.08-12.28.24v-1.58c1.74-.11,3.02-.32,3.84-.63.82-.32,1.37-.92,1.66-1.82.29-.9.44-2.35.44-4.36v-13.39l-15.29-28.28c-1.64-2.96-3.17-4.44-4.59-4.44v-1.66c2.32.26,5.44.4,9.35.4,4.91,0,9.87-.13,14.89-.4v1.66c-1.85,0-3.31.17-4.4.52-1.08.34-1.62.96-1.62,1.86,0,.48.18,1.06.55,1.74l12.04,23.21,6.18-12.36c2.06-4.17,3.09-7.45,3.09-9.82,0-1.79-.57-3.09-1.7-3.88-1.14-.79-2.76-1.24-4.87-1.35v-1.58c3.59.16,6.89.24,9.9.24,2.43,0,4.44-.08,6.02-.24Z"/>
  <path class="cls-1" d="M152.41,9.72c1.64.53,3.3,1.29,4.99,2.3.58.32,1.09.58,1.54.79.45.21.83.32,1.15.32.48,0,.84-.28,1.11-.83.26-.55.48-1.44.63-2.65h1.82c-.26,3.54-.4,9.56-.4,18.06h-1.82c-.21-2.85-.86-5.57-1.94-8.16-1.08-2.59-2.61-4.69-4.59-6.3-1.98-1.61-4.29-2.42-6.93-2.42s-4.69.73-6.3,2.18c-1.61,1.45-2.42,3.42-2.42,5.9,0,1.85.4,3.46,1.19,4.83.79,1.37,1.9,2.63,3.33,3.76,1.43,1.14,3.62,2.68,6.57,4.63l2.53,1.74c3.12,2.06,5.57,3.86,7.37,5.39,1.79,1.53,3.26,3.31,4.4,5.35,1.14,2.03,1.7,4.4,1.7,7.09,0,3.38-.87,6.22-2.61,8.51-1.74,2.3-4.11,4.03-7.09,5.19-2.98,1.16-6.3,1.74-9.94,1.74-2.96,0-5.41-.27-7.37-.79-1.95-.53-3.75-1.24-5.39-2.14-1.16-.74-2.06-1.11-2.69-1.11-.48,0-.85.28-1.11.83-.27.55-.48,1.44-.63,2.65h-1.82c.21-3.33.32-10.46.32-21.39h1.82c.37,5.91,1.69,10.71,3.96,14.38,2.27,3.67,5.75,5.51,10.46,5.51,2.85,0,5.2-.77,7.05-2.3,1.85-1.53,2.77-3.72,2.77-6.57s-.95-5.49-2.85-7.6c-1.9-2.11-4.91-4.49-9.03-7.13-3.17-2.06-5.7-3.85-7.6-5.39-1.9-1.53-3.46-3.34-4.67-5.43-1.21-2.09-1.82-4.5-1.82-7.25,0-3.17.8-5.85,2.42-8.04,1.61-2.19,3.76-3.81,6.46-4.87,2.69-1.06,5.65-1.58,8.87-1.58,2.75,0,4.94.26,6.57.79Z"/>
  <path class="cls-1" d="M219.9,23.43c0,2.48.08,4.49.24,6.02h-1.82c-1.27-6.5-3-11.06-5.19-13.7-2.19-2.64-5.19-3.96-8.99-3.96h-1.82v45.23c0,2.22.22,3.83.67,4.83.45,1,1.24,1.68,2.38,2.02,1.13.34,2.94.54,5.43.59v1.58c-6.65-.16-11.67-.24-15.05-.24s-8.16.08-14.5.24v-1.58c2.48-.05,4.29-.25,5.43-.59,1.14-.34,1.93-1.02,2.38-2.02.45-1,.67-2.61.67-4.83V11.78h-1.74c-2.54,0-4.69.55-6.46,1.66-1.77,1.11-3.29,2.94-4.55,5.5-1.27,2.56-2.35,6.06-3.25,10.5h-1.82c.16-1.53.24-3.54.24-6.02,0-3.96-.19-8.45-.55-13.47,4.8.16,12.96.24,24.48.24s19.64-.08,24.4-.24c-.37,5.02-.55,9.51-.55,13.47Z"/>
  <path class="cls-1" d="M249.68,11.54c-1.8.11-3.09.32-3.88.63s-1.33.92-1.62,1.82c-.29.9-.44,2.35-.44,4.36v39.29c0,2.01.14,3.46.44,4.36.29.9.83,1.5,1.62,1.82.79.32,2.08.53,3.88.63v1.58c-2.85-.16-6.84-.24-11.96-.24-5.65,0-9.82.08-12.51.24v-1.58c1.74-.11,3.02-.32,3.84-.63.82-.32,1.37-.92,1.66-1.82.29-.9.44-2.35.44-4.36V18.36c0-2.01-.15-3.46-.44-4.36-.29-.9-.85-1.5-1.66-1.82-.82-.32-2.1-.53-3.84-.63v-1.58c2.69.16,6.86.24,12.51.24,5.12,0,9.11-.08,11.96-.24v1.58Z"/>
  <path class="cls-1" d="M291.19,10.2c2.22.9,4.38,2.17,6.49,3.8.58.48,1.08.71,1.51.71,1.06,0,1.74-1.58,2.06-4.75h1.82c-.21,3.59-.32,9.98-.32,19.17h-1.82c-.47-3.91-1.11-6.89-1.9-8.95-.79-2.06-2.14-3.85-4.04-5.39-1.32-1.27-2.85-2.23-4.6-2.89-1.74-.66-3.56-.99-5.46-.99-5.33,0-9.29,2.6-11.88,7.8-2.59,5.2-3.88,11.68-3.88,19.45s1.35,14.15,4.04,19.33c2.69,5.18,6.71,7.76,12.04,7.76,1.79,0,3.58-.33,5.35-.99,1.77-.66,3.26-1.62,4.47-2.89,1.95-1.48,3.31-3.33,4.08-5.54.76-2.22,1.36-5.47,1.78-9.74h1.82c0,9.56.11,16.21.32,19.96h-1.82c-.16-1.69-.38-2.89-.67-3.6-.29-.71-.7-1.07-1.23-1.07-.42,0-.98.21-1.66.63-2.38,1.69-4.65,2.97-6.81,3.84-2.17.87-4.78,1.31-7.84,1.31-5.6,0-10.5-1.14-14.69-3.41-4.2-2.27-7.46-5.56-9.78-9.86-2.32-4.3-3.48-9.44-3.48-15.41s1.19-10.96,3.56-15.45c2.38-4.49,5.69-7.97,9.94-10.46,4.25-2.48,9.1-3.72,14.54-3.72,3.17,0,5.86.45,8.08,1.35Z"/>
  <path class="cls-1" d="M392.89,12.18c-.79.32-1.33.92-1.62,1.82-.29.9-.44,2.35-.44,4.36v39.29c0,2.01.14,3.46.44,4.36.29.9.84,1.5,1.66,1.82.82.32,2.1.53,3.84.63v1.58c-2.9-.16-7.05-.24-12.44-.24-5.65,0-9.82.08-12.52.24v-1.58c1.9-.11,3.29-.32,4.16-.63.87-.32,1.46-.92,1.78-1.82.32-.9.47-2.35.47-4.36V16.22l-19.09,49.9h-1.27l-21.39-51.01v37.94c0,3.12.16,5.4.47,6.85.32,1.45,1,2.51,2.06,3.17,1.06.66,2.77,1.12,5.15,1.39v1.58c-2.06-.16-4.91-.24-8.55-.24-2.91,0-5.2.08-6.89.24v-1.58c1.74-.26,3.02-.71,3.84-1.35s1.37-1.64,1.66-3.01c.29-1.37.44-3.41.44-6.1V18.36c0-2.01-.15-3.46-.44-4.36-.29-.9-.85-1.5-1.66-1.82s-2.1-.53-3.84-.63v-1.58c1.69.16,3.99.24,6.89.24,4.86,0,9.03-.08,12.51-.24l16,38.58,14.58-38.34h5.62c5.39,0,9.53-.08,12.44-.24v1.58c-1.79.11-3.09.32-3.88.63Z"/>
  <path class="cls-1" d="M450.16,63.19c.9.79,1.77,1.22,2.62,1.27v1.58c-3.17-.16-7.18-.24-12.04-.24-5.39,0-9.4.08-12.04.24v-1.58c2.01-.11,3.43-.36,4.28-.75.84-.4,1.27-1.09,1.27-2.1,0-.95-.32-2.22-.95-3.8l-4.75-12.99h-17.27l-2.06,5.47c-1.48,3.8-2.22,6.73-2.22,8.79s.59,3.31,1.78,4.08c1.19.77,2.94,1.2,5.27,1.31v1.58c-3.59-.16-6.87-.24-9.82-.24-2.43,0-4.44.08-6.02.24v-1.58c2.59-.48,4.86-3.25,6.81-8.32l18.06-46.34c.58.05,1.51.08,2.77.08s2.16-.03,2.69-.08l19.25,49.59c.69,1.74,1.48,3.01,2.38,3.8ZM427.98,43.23l-7.84-21.39-8.24,21.39h16.08Z"/>
  <path class="cls-1" d="M496.66,9.88v1.58c-2.43,1-4.96,4.07-7.6,9.19l-9.35,18.54v18.46c0,2.01.14,3.46.44,4.36.29.9.83,1.5,1.62,1.82.79.32,2.08.53,3.88.63v1.58c-2.85-.16-6.92-.24-12.2-.24-5.65,0-9.74.08-12.28.24v-1.58c1.74-.11,3.02-.32,3.84-.63.82-.32,1.37-.92,1.66-1.82.29-.9.44-2.35.44-4.36v-13.39l-15.29-28.28c-1.64-2.96-3.17-4.44-4.6-4.44v-1.66c2.32.26,5.44.4,9.35.4,4.91,0,9.87-.13,14.89-.4v1.66c-1.85,0-3.31.17-4.39.52-1.08.34-1.62.96-1.62,1.86,0,.48.19,1.06.55,1.74l12.04,23.21,6.18-12.36c2.06-4.17,3.09-7.45,3.09-9.82,0-1.79-.57-3.09-1.7-3.88-1.13-.79-2.76-1.24-4.87-1.35v-1.58c3.59.16,6.89.24,9.9.24,2.43,0,4.44-.08,6.02-.24Z"/>
</svg>