<?xml version="1.0" encoding="UTF-8"?>
<svg xmlns="http://www.w3.org/2000/svg" width="399" height="54" version="1.1" viewBox="0 0 399 54">
  <defs>
    <style>
      .cls-1 {
        fill: #fff;
      }
    </style>
  </defs>
  <!-- Generator: Adobe Illustrator 28.7.1, SVG Export Plug-In . SVG Version: 1.2.0 Build 142)  -->
  <g>
    <g id="Layer_1">
      <g>
        <path class="cls-1" d="M51.9,6.1c-.6.3-1.1.7-1.3,1.5-.2.7-.4,1.9-.4,3.5v31.8c0,1.6.1,2.8.4,3.5.2.7.7,1.2,1.3,1.5.7.3,1.7.4,3.1.5v1.3c-2.3-.1-5.7-.2-10.1-.2s-7.9,0-10.1.2v-1.3c1.5,0,2.7-.3,3.4-.5s1.2-.7,1.4-1.5c.3-.7.4-1.9.4-3.5V9.4l-15.4,40.4h-1L6.3,8.5v30.7c0,2.5.1,4.4.4,5.5.3,1.2.8,2,1.7,2.6.9.5,2.2.9,4.2,1.1v1.3c-1.7-.1-4-.2-6.9-.2s-4.2,0-5.6.2v-1.3c1.4-.2,2.4-.6,3.1-1.1.7-.5,1.1-1.3,1.3-2.4.2-1.1.4-2.8.4-4.9V11.1c0-1.6-.1-2.8-.4-3.5-.2-.7-.7-1.2-1.3-1.5-.7-.3-1.7-.4-3.1-.5v-1.3c1.4.1,3.2.2,5.6.2,3.9,0,7.3,0,10.1-.2l12.9,31.2,11.8-31h4.5c4.4,0,7.7,0,10.1-.2v1.3c-1.5,0-2.5.3-3.1.5Z"/>
        <path class="cls-1" d="M96.7,4.3v1.3c-2,.8-4,3.3-6.2,7.4l-7.6,15v14.9c0,1.6.1,2.8.4,3.5.2.7.7,1.2,1.3,1.5.6.3,1.7.4,3.1.5v1.3c-2.3-.1-5.6-.2-9.9-.2s-7.9,0-9.9.2v-1.3c1.4,0,2.4-.3,3.1-.5.7-.3,1.1-.7,1.3-1.5.2-.7.4-1.9.4-3.5v-10.8l-12.4-22.9c-1.3-2.4-2.6-3.6-3.7-3.6v-1.3c1.9.2,4.4.3,7.6.3s8-.1,12-.3v1.3c-1.5,0-2.7.1-3.6.4-.9.3-1.3.8-1.3,1.5s.1.9.4,1.4l9.7,18.8,5-10c1.7-3.4,2.5-6,2.5-7.9s-.5-2.5-1.4-3.1c-.9-.6-2.2-1-3.9-1.1v-1.3c2.9.1,5.6.2,8,.2s3.6,0,4.9-.2Z"/>
        <path class="cls-1" d="M120.6,4.1c1.3.4,2.7,1,4,1.9.5.3.9.5,1.2.6.4.2.7.3.9.3.4,0,.7-.2.9-.7.2-.4.4-1.2.5-2.1h1.5c-.2,2.9-.3,7.7-.3,14.6h-1.5c-.2-2.3-.7-4.5-1.6-6.6-.9-2.1-2.1-3.8-3.7-5.1-1.6-1.3-3.5-2-5.6-2s-3.8.6-5.1,1.8c-1.3,1.2-2,2.8-2,4.8s.3,2.8,1,3.9c.6,1.1,1.5,2.1,2.7,3,1.2.9,2.9,2.2,5.3,3.7l2,1.4c2.5,1.7,4.5,3.1,6,4.4,1.5,1.2,2.6,2.7,3.6,4.3.9,1.6,1.4,3.6,1.4,5.7s-.7,5-2.1,6.9-3.3,3.3-5.7,4.2c-2.4.9-5.1,1.4-8,1.4s-4.4-.2-6-.6c-1.6-.4-3-1-4.4-1.7-.9-.6-1.7-.9-2.2-.9s-.7.2-.9.7c-.2.4-.4,1.2-.5,2.1h-1.5c.2-2.7.3-8.5.3-17.3h1.5c.3,4.8,1.4,8.7,3.2,11.6,1.8,3,4.7,4.5,8.5,4.5s4.2-.6,5.7-1.9c1.5-1.2,2.2-3,2.2-5.3s-.8-4.4-2.3-6.2c-1.5-1.7-4-3.6-7.3-5.8-2.6-1.7-4.6-3.1-6.2-4.4-1.5-1.2-2.8-2.7-3.8-4.4-1-1.7-1.5-3.6-1.5-5.9s.7-4.7,2-6.5c1.3-1.8,3-3.1,5.2-3.9,2.2-.9,4.6-1.3,7.2-1.3s4,.2,5.3.6Z"/>
        <path class="cls-1" d="M175.2,15.2c0,2,0,3.6.2,4.9h-1.5c-1-5.3-2.4-8.9-4.2-11.1-1.8-2.1-4.2-3.2-7.3-3.2h-1.5v36.6c0,1.8.2,3.1.5,3.9.4.8,1,1.4,1.9,1.6.9.3,2.4.4,4.4.5v1.3c-5.4-.1-9.4-.2-12.2-.2s-6.6,0-11.7.2v-1.3c2,0,3.5-.2,4.4-.5.9-.3,1.6-.8,1.9-1.6.4-.8.5-2.1.5-3.9V5.8h-1.4c-2.1,0-3.8.4-5.2,1.3-1.4.9-2.7,2.4-3.7,4.5-1,2.1-1.9,4.9-2.6,8.5h-1.5c.1-1.2.2-2.9.2-4.9,0-3.2-.2-6.8-.4-10.9,3.9.1,10.5.2,19.8.2s15.9,0,19.7-.2c-.3,4.1-.4,7.7-.4,10.9Z"/>
        <path class="cls-1" d="M199.2,5.6c-1.5,0-2.5.3-3.1.5-.6.3-1.1.7-1.3,1.5-.2.7-.4,1.9-.4,3.5v31.8c0,1.6.1,2.8.4,3.5.2.7.7,1.2,1.3,1.5.6.3,1.7.4,3.1.5v1.3c-2.3-.1-5.5-.2-9.7-.2s-7.9,0-10.1.2v-1.3c1.4,0,2.4-.3,3.1-.5.7-.3,1.1-.7,1.3-1.5.2-.7.4-1.9.4-3.5V11.1c0-1.6-.1-2.8-.4-3.5-.2-.7-.7-1.2-1.3-1.5-.7-.3-1.7-.4-3.1-.5v-1.3c2.2.1,5.6.2,10.1.2s7.4,0,9.7-.2v1.3Z"/>
        <path class="cls-1" d="M232.8,4.5c1.8.7,3.5,1.8,5.3,3.1.5.4.9.6,1.2.6.9,0,1.4-1.3,1.7-3.8h1.5c-.2,2.9-.3,8.1-.3,15.5h-1.5c-.4-3.2-.9-5.6-1.5-7.2s-1.7-3.1-3.3-4.4c-1.1-1-2.3-1.8-3.7-2.3-1.4-.5-2.9-.8-4.4-.8-4.3,0-7.5,2.1-9.6,6.3-2.1,4.2-3.1,9.4-3.1,15.7s1.1,11.4,3.3,15.6c2.2,4.2,5.4,6.3,9.7,6.3s2.9-.3,4.3-.8c1.4-.5,2.6-1.3,3.6-2.3,1.6-1.2,2.7-2.7,3.3-4.5.6-1.8,1.1-4.4,1.4-7.9h1.5c0,7.7,0,13.1.3,16.1h-1.5c-.1-1.4-.3-2.3-.5-2.9-.2-.6-.6-.9-1-.9s-.8.2-1.3.5c-1.9,1.4-3.8,2.4-5.5,3.1-1.8.7-3.9,1.1-6.3,1.1-4.5,0-8.5-.9-11.9-2.8-3.4-1.8-6-4.5-7.9-8-1.9-3.5-2.8-7.6-2.8-12.5s1-8.9,2.9-12.5c1.9-3.6,4.6-6.4,8-8.5,3.4-2,7.4-3,11.8-3s4.7.4,6.5,1.1Z"/>
        <path class="cls-1" d="M315.1,6.1c-.6.3-1.1.7-1.3,1.5-.2.7-.4,1.9-.4,3.5v31.8c0,1.6.1,2.8.4,3.5.2.7.7,1.2,1.3,1.5.7.3,1.7.4,3.1.5v1.3c-2.4-.1-5.7-.2-10.1-.2s-7.9,0-10.1.2v-1.3c1.5,0,2.7-.3,3.4-.5s1.2-.7,1.4-1.5c.3-.7.4-1.9.4-3.5V9.4l-15.4,40.4h-1l-17.3-41.3v30.7c0,2.5.1,4.4.4,5.5.3,1.2.8,2,1.7,2.6.9.5,2.2.9,4.2,1.1v1.3c-1.7-.1-4-.2-6.9-.2s-4.2,0-5.6.2v-1.3c1.4-.2,2.4-.6,3.1-1.1s1.1-1.3,1.3-2.4c.2-1.1.4-2.8.4-4.9V11.1c0-1.6-.1-2.8-.4-3.5-.2-.7-.7-1.2-1.3-1.5s-1.7-.4-3.1-.5v-1.3c1.4.1,3.2.2,5.6.2,3.9,0,7.3,0,10.1-.2l12.9,31.2,11.8-31h4.5c4.4,0,7.7,0,10.1-.2v1.3c-1.5,0-2.5.3-3.1.5Z"/>
        <path class="cls-1" d="M361.4,47.4c.7.6,1.4,1,2.1,1v1.3c-2.6-.1-5.8-.2-9.7-.2s-7.6,0-9.7.2v-1.3c1.6,0,2.8-.3,3.5-.6.7-.3,1-.9,1-1.7s-.3-1.8-.8-3.1l-3.8-10.5h-14l-1.7,4.4c-1.2,3.1-1.8,5.4-1.8,7.1s.5,2.7,1.4,3.3c1,.6,2.4,1,4.3,1.1v1.3c-2.9-.1-5.6-.2-7.9-.2s-3.6,0-4.9.2v-1.3c2.1-.4,3.9-2.6,5.5-6.7l14.6-37.5c.5,0,1.2,0,2.2,0s1.7,0,2.2,0l15.6,40.1c.6,1.4,1.2,2.4,1.9,3.1ZM343.5,31.2l-6.3-17.3-6.7,17.3h13Z"/>
        <path class="cls-1" d="M399,4.3v1.3c-2,.8-4,3.3-6.2,7.4l-7.6,15v14.9c0,1.6.1,2.8.4,3.5.2.7.7,1.2,1.3,1.5s1.7.4,3.1.5v1.3c-2.3-.1-5.6-.2-9.9-.2s-7.9,0-9.9.2v-1.3c1.4,0,2.4-.3,3.1-.5s1.1-.7,1.3-1.5c.2-.7.4-1.9.4-3.5v-10.8l-12.4-22.9c-1.3-2.4-2.6-3.6-3.7-3.6v-1.3c1.9.2,4.4.3,7.6.3s8-.1,12-.3v1.3c-1.5,0-2.7.1-3.6.4-.9.3-1.3.8-1.3,1.5s.2.9.4,1.4l9.7,18.8,5-10c1.7-3.4,2.5-6,2.5-7.9s-.5-2.5-1.4-3.1c-.9-.6-2.2-1-3.9-1.1v-1.3c2.9.1,5.6.2,8,.2s3.6,0,4.9-.2Z"/>
      </g>
    </g>
  </g>
</svg>